<svg width="583" height="162" viewBox="0 0 583 162" fill="none" xmlns="http://www.w3.org/2000/svg">
<path d="M56 126C80.8528 126 101 105.853 101 81C101 56.1472 80.8528 36 56 36C31.1472 36 11 56.1472 11 81C11 105.853 31.1472 126 56 126Z" fill="url(#paint0_linear_123_3)"/>
<path d="M71 116C93.0914 116 111 98.0914 111 76C111 53.9086 93.0914 36 71 36C48.9086 36 31 53.9086 31 76C31 98.0914 48.9086 116 71 116Z" fill="#8B5CF6"/>
<path d="M151.098 51.4609H172.051L180.137 82.8203L188.188 51.4609H209.07V103H196.062V63.6953L185.973 103H174.195L164.141 63.6953V103H151.098V51.4609ZM219.898 51.4609H235.859V103H219.898V51.4609ZM247.531 51.4609H271.191C275.855 51.4609 279.617 52.0938 282.477 53.3594C285.359 54.625 287.738 56.4414 289.613 58.8086C291.488 61.1758 292.848 63.9297 293.691 67.0703C294.535 70.2109 294.957 73.5391 294.957 77.0547C294.957 82.5625 294.324 86.8398 293.059 89.8867C291.816 92.9102 290.082 95.4531 287.855 97.5156C285.629 99.5547 283.238 100.914 280.684 101.594C277.191 102.531 274.027 103 271.191 103H247.531V51.4609ZM263.457 63.1328V91.293H267.359C270.688 91.293 273.055 90.9297 274.461 90.2031C275.867 89.4531 276.969 88.1641 277.766 86.3359C278.562 84.4844 278.961 81.4961 278.961 77.3711C278.961 71.9102 278.07 68.1719 276.289 66.1562C274.508 64.1406 271.555 63.1328 267.43 63.1328H263.457ZM303.465 51.4609H318.336L337.742 79.9727V51.4609H352.754V103H337.742L318.441 74.6992V103H303.465V51.4609ZM363.969 51.4609H379.93V103H363.969V51.4609ZM417.301 84.332V73.6094H441.91V95.582C437.199 98.793 433.027 100.984 429.395 102.156C425.785 103.305 421.496 103.879 416.527 103.879C410.41 103.879 405.418 102.836 401.551 100.75C397.707 98.6641 394.719 95.5586 392.586 91.4336C390.477 87.3086 389.422 82.5742 389.422 77.2305C389.422 71.6055 390.582 66.7188 392.902 62.5703C395.223 58.3984 398.621 55.2344 403.098 53.0781C406.59 51.4141 411.289 50.582 417.195 50.582C422.891 50.582 427.145 51.0977 429.957 52.1289C432.793 53.1602 435.137 54.7656 436.988 56.9453C438.863 59.1016 440.27 61.8438 441.207 65.1719L425.844 67.9141C425.211 65.9688 424.133 64.4805 422.609 63.4492C421.109 62.418 419.188 61.9023 416.844 61.9023C413.352 61.9023 410.562 63.1211 408.477 65.5586C406.414 67.9727 405.383 71.8047 405.383 77.0547C405.383 82.6328 406.426 86.6172 408.512 89.0078C410.621 91.3984 413.551 92.5938 417.301 92.5938C419.082 92.5938 420.781 92.3359 422.398 91.8203C424.016 91.3047 425.867 90.4258 427.953 89.1836V84.332H417.301ZM451.438 51.4609H467.363V69.4961H484.766V51.4609H500.762V103H484.766V82.1523H467.363V103H451.438V51.4609ZM507.723 51.4609H556.133V64.1875H539.891V103H523.965V64.1875H507.723V51.4609Z" fill="url(#paint1_linear_123_3)"/>
<path d="M147.977 125L152.375 113.547H154.008L158.695 125H156.969L155.633 121.531H150.844L149.586 125H147.977ZM151.281 120.297H155.164L153.969 117.125C153.604 116.161 153.333 115.37 153.156 114.75C153.01 115.484 152.805 116.214 152.539 116.938L151.281 120.297ZM160.164 125V113.547H161.68V125H160.164ZM168.859 125V113.547H170.375V118.25H176.328V113.547H177.844V125H176.328V119.602H170.375V125H168.859ZM179.914 119.422C179.914 117.521 180.424 116.034 181.445 114.961C182.466 113.883 183.784 113.344 185.398 113.344C186.456 113.344 187.409 113.596 188.258 114.102C189.107 114.607 189.753 115.312 190.195 116.219C190.643 117.12 190.867 118.143 190.867 119.289C190.867 120.451 190.633 121.49 190.164 122.406C189.695 123.323 189.031 124.018 188.172 124.492C187.312 124.961 186.385 125.195 185.391 125.195C184.312 125.195 183.349 124.935 182.5 124.414C181.651 123.893 181.008 123.182 180.57 122.281C180.133 121.38 179.914 120.427 179.914 119.422ZM181.477 119.445C181.477 120.826 181.846 121.914 182.586 122.711C183.331 123.503 184.263 123.898 185.383 123.898C186.523 123.898 187.461 123.497 188.195 122.695C188.935 121.893 189.305 120.755 189.305 119.281C189.305 118.349 189.146 117.536 188.828 116.844C188.516 116.146 188.055 115.607 187.445 115.227C186.841 114.841 186.161 114.648 185.406 114.648C184.333 114.648 183.409 115.018 182.633 115.758C181.862 116.492 181.477 117.721 181.477 119.445ZM192.781 125V113.547H195.062L197.773 121.656C198.023 122.411 198.206 122.977 198.32 123.352C198.451 122.935 198.654 122.323 198.93 121.516L201.672 113.547H203.711V125H202.25V115.414L198.922 125H197.555L194.242 115.25V125H192.781ZM206.188 125V113.547H214.469V114.898H207.703V118.406H214.039V119.75H207.703V123.648H214.734V125H206.188ZM220.766 121.32L222.195 121.195C222.263 121.768 222.419 122.24 222.664 122.609C222.914 122.974 223.299 123.271 223.82 123.5C224.341 123.724 224.927 123.836 225.578 123.836C226.156 123.836 226.667 123.75 227.109 123.578C227.552 123.406 227.88 123.172 228.094 122.875C228.312 122.573 228.422 122.245 228.422 121.891C228.422 121.531 228.318 121.219 228.109 120.953C227.901 120.682 227.557 120.456 227.078 120.273C226.771 120.154 226.091 119.969 225.039 119.719C223.987 119.464 223.25 119.224 222.828 119C222.281 118.714 221.872 118.359 221.602 117.938C221.336 117.51 221.203 117.034 221.203 116.508C221.203 115.93 221.367 115.391 221.695 114.891C222.023 114.385 222.503 114.003 223.133 113.742C223.763 113.482 224.464 113.352 225.234 113.352C226.083 113.352 226.831 113.49 227.477 113.766C228.128 114.036 228.628 114.438 228.977 114.969C229.326 115.5 229.513 116.102 229.539 116.773L228.086 116.883C228.008 116.159 227.742 115.612 227.289 115.242C226.841 114.872 226.177 114.688 225.297 114.688C224.38 114.688 223.711 114.857 223.289 115.195C222.872 115.529 222.664 115.932 222.664 116.406C222.664 116.818 222.812 117.156 223.109 117.422C223.401 117.688 224.161 117.961 225.391 118.242C226.625 118.518 227.471 118.76 227.93 118.969C228.596 119.276 229.089 119.667 229.406 120.141C229.724 120.609 229.883 121.151 229.883 121.766C229.883 122.375 229.708 122.951 229.359 123.492C229.01 124.029 228.508 124.448 227.852 124.75C227.201 125.047 226.466 125.195 225.648 125.195C224.612 125.195 223.742 125.044 223.039 124.742C222.341 124.44 221.792 123.987 221.391 123.383C220.995 122.773 220.786 122.086 220.766 121.32ZM231.984 125V113.547H240.266V114.898H233.5V118.406H239.836V119.75H233.5V123.648H240.531V125H231.984ZM250.797 120.984L252.312 121.367C251.995 122.612 251.422 123.562 250.594 124.219C249.771 124.87 248.763 125.195 247.57 125.195C246.336 125.195 245.331 124.945 244.555 124.445C243.784 123.94 243.195 123.211 242.789 122.258C242.388 121.305 242.188 120.281 242.188 119.188C242.188 117.995 242.414 116.956 242.867 116.07C243.326 115.18 243.974 114.505 244.812 114.047C245.656 113.583 246.583 113.352 247.594 113.352C248.74 113.352 249.703 113.643 250.484 114.227C251.266 114.81 251.81 115.63 252.117 116.688L250.625 117.039C250.359 116.206 249.974 115.599 249.469 115.219C248.964 114.839 248.328 114.648 247.562 114.648C246.682 114.648 245.945 114.859 245.352 115.281C244.763 115.703 244.349 116.271 244.109 116.984C243.87 117.693 243.75 118.424 243.75 119.18C243.75 120.154 243.891 121.005 244.172 121.734C244.458 122.458 244.901 123 245.5 123.359C246.099 123.719 246.747 123.898 247.445 123.898C248.294 123.898 249.013 123.654 249.602 123.164C250.19 122.674 250.589 121.948 250.797 120.984ZM261.703 113.547H263.219V120.164C263.219 121.315 263.089 122.229 262.828 122.906C262.568 123.583 262.096 124.135 261.414 124.562C260.737 124.984 259.846 125.195 258.742 125.195C257.669 125.195 256.792 125.01 256.109 124.641C255.427 124.271 254.94 123.737 254.648 123.039C254.357 122.336 254.211 121.378 254.211 120.164V113.547H255.727V120.156C255.727 121.151 255.818 121.885 256 122.359C256.188 122.828 256.505 123.19 256.953 123.445C257.406 123.701 257.958 123.828 258.609 123.828C259.724 123.828 260.518 123.576 260.992 123.07C261.466 122.565 261.703 121.594 261.703 120.156V113.547ZM265.773 125V113.547H270.852C271.872 113.547 272.648 113.651 273.18 113.859C273.711 114.062 274.135 114.424 274.453 114.945C274.771 115.466 274.93 116.042 274.93 116.672C274.93 117.484 274.667 118.169 274.141 118.727C273.615 119.284 272.802 119.638 271.703 119.789C272.104 119.982 272.409 120.172 272.617 120.359C273.06 120.766 273.479 121.273 273.875 121.883L275.867 125H273.961L272.445 122.617C272.003 121.93 271.638 121.404 271.352 121.039C271.065 120.674 270.807 120.419 270.578 120.273C270.354 120.128 270.125 120.026 269.891 119.969C269.719 119.932 269.438 119.914 269.047 119.914H267.289V125H265.773ZM267.289 118.602H270.547C271.24 118.602 271.781 118.531 272.172 118.391C272.562 118.245 272.859 118.016 273.062 117.703C273.266 117.385 273.367 117.042 273.367 116.672C273.367 116.13 273.169 115.685 272.773 115.336C272.383 114.987 271.763 114.812 270.914 114.812H267.289V118.602ZM277.57 125V113.547H279.086V125H277.57ZM284.68 125V114.898H280.906V113.547H289.984V114.898H286.195V125H284.68ZM294.773 125V120.148L290.359 113.547H292.203L294.461 117C294.878 117.646 295.266 118.292 295.625 118.938C295.969 118.339 296.385 117.664 296.875 116.914L299.094 113.547H300.859L296.289 120.148V125H294.773Z" fill="#8B5CF6"/>
<defs>
<linearGradient id="paint0_linear_123_3" x1="11" y1="36" x2="9011" y2="36" gradientUnits="userSpaceOnUse">
<stop stop-color="#E0E7FF"/>
<stop offset="1" stop-color="#C7D2FE"/>
</linearGradient>
<linearGradient id="paint1_linear_123_3" x1="146" y1="24" x2="41446" y2="24" gradientUnits="userSpaceOnUse">
<stop stop-color="#E0E7FF"/>
<stop offset="1" stop-color="#C7D2FE"/>
</linearGradient>
</defs>
</svg>
